# xmcd
#
# Track frame offsets:
#	150
#	13667
#	26872
#	39572
#	52390
#	64397
#	76930
#	90050
#	103022
#	114835
#	127162
#	140665
#	154270
#	166567
#	179937
#	191972
#	205500
#	216857
#	229527
#	242250
#	255312
#	268580
#	280532
#	295430
#	307770
#	320902
#
# Disc length: 4447 seconds
#
# Revision: 1
# Processed by: cddbd v1.5PL3 Copyright (c) Steve Scherf et al.
# Submitted via: audiograbber 1.81.03
#
DISCID=75115d1a
DTITLE=Big Bill Broonzy - Complete Recorded Works in Chronological Order Vol. 1
DTITLE=0
DYEAR=1940
DGENRE=Blues
TTITLE0=Plow Hand Blues
TTITLE1=Jivin' Mr. Fuller Blues
TTITLE2=Make My Get Away
TTITLE3=Looking For My Baby
TTITLE4=I've Got to Dig You
TTITLE5=Leap Year Blues
TTITLE6=When I Had Money
TTITLE7=You Got to Hit the Right Lick
TTITLE8=What is That She Got?
TTITLE9=Merry Go Round Blues (3039)
TTITLE10=Medicine Man Blues
TTITLE11=Looking Up at Down
TTITLE12=Midnight Steppers
TTITLE13=Lone Wolf Blues
TTITLE14=Hit the Right Lick
TTITLE15=You Better Cut that Out
TTITLE16=I Wonder what's Wrong with Me
TTITLE17=Bed Time Blues
TTITLE18=Merry-Go-Round Blues (3309)
TTITLE19=Serenade Blues
TTITLE20=Lonesome Road Blues
TTITLE21=Getting Older Every Day (take 1)
TTITLE22=Getting Older Every Day (take 2)
TTITLE23=That Number of Mine
TTITLE24=My Gal is Gone
TTITLE25=I'll Never Dream Again
EXTD=DOCD-5132  26 January to 17 December 1940
EXTT0=
EXTT1=
EXTT2=
EXTT3=
EXTT4=
EXTT5=
EXTT6=
EXTT7=
EXTT8=
EXTT9=
EXTT10=
EXTT11=
EXTT12=
EXTT13=
EXTT14=
EXTT15=
EXTT16=
EXTT17=
EXTT18=
EXTT19=
EXTT20=
EXTT21=
EXTT22=
EXTT23=
EXTT24=
EXTT25=
PLAYORDER=
